<svg width="21" height="21" viewBox="0 0 21 21" fill="none" xmlns="http://www.w3.org/2000/svg">
<path d="M2.5 20C1.95 20 1.47917 19.8042 1.0875 19.4125C0.695833 19.0208 0.5 18.55 0.5 18V4C0.5 3.45 0.695833 2.97917 1.0875 2.5875C1.47917 2.19583 1.95 2 2.5 2H3.5V1C3.5 0.716667 3.59583 0.479167 3.7875 0.2875C3.97917 0.0958333 4.21667 0 4.5 0C4.78333 0 5.02083 0.0958333 5.2125 0.2875C5.40417 0.479167 5.5 0.716667 5.5 1V2H13.5V1C13.5 0.716667 13.5958 0.479167 13.7875 0.2875C13.9792 0.0958333 14.2167 0 14.5 0C14.7833 0 15.0208 0.0958333 15.2125 0.2875C15.4042 0.479167 15.5 0.716667 15.5 1V2H16.5C17.05 2 17.5208 2.19583 17.9125 2.5875C18.3042 2.97917 18.5 3.45 18.5 4V8.675C18.5 8.95833 18.4042 9.19583 18.2125 9.3875C18.0208 9.57917 17.7833 9.675 17.5 9.675C17.2167 9.675 16.9792 9.57917 16.7875 9.3875C16.5958 9.19583 16.5 8.95833 16.5 8.675V8H2.5V18H8.3C8.58333 18 8.82083 18.0958 9.0125 18.2875C9.20417 18.4792 9.3 18.7167 9.3 19C9.3 19.2833 9.20417 19.5208 9.0125 19.7125C8.82083 19.9042 8.58333 20 8.3 20H2.5ZM15.5 21C14.1167 21 12.9375 20.5125 11.9625 19.5375C10.9875 18.5625 10.5 17.3833 10.5 16C10.5 14.6167 10.9875 13.4375 11.9625 12.4625C12.9375 11.4875 14.1167 11 15.5 11C16.8833 11 18.0625 11.4875 19.0375 12.4625C20.0125 13.4375 20.5 14.6167 20.5 16C20.5 17.3833 20.0125 18.5625 19.0375 19.5375C18.0625 20.5125 16.8833 21 15.5 21ZM16 15.8V13.5C16 13.3667 15.95 13.25 15.85 13.15C15.75 13.05 15.6333 13 15.5 13C15.3667 13 15.25 13.05 15.15 13.15C15.05 13.25 15 13.3667 15 13.5V15.775C15 15.9083 15.025 16.0375 15.075 16.1625C15.125 16.2875 15.2 16.4 15.3 16.5L16.825 18.025C16.925 18.125 17.0417 18.175 17.175 18.175C17.3083 18.175 17.425 18.125 17.525 18.025C17.625 17.925 17.675 17.8083 17.675 17.675C17.675 17.5417 17.625 17.425 17.525 17.325L16 15.8Z" fill="#292929" fill-opacity="0.6"/>
</svg>
